<svg id="Capa_1" enable-background="new 0 0 512 512" height="512" viewBox="0 0 512 512" width="512" xmlns="http://www.w3.org/2000/svg"><g><g><g><path d="m36.2 266.19c-4.056 0-7.805-2.563-9.29-6.333-1.528-3.878-.449-8.44 2.696-11.193 3.186-2.788 7.926-3.251 11.591-1.137 3.666 2.115 5.649 6.455 4.812 10.613-.927 4.608-5.101 8.05-9.809 8.05z"/></g><g><g><path d="m339.792 387.128h-157.787c-5.523 0-10-4.478-10-10s4.477-10 10-10h157.787c5.522 0 10 4.478 10 10s-4.477 10-10 10z"/></g></g><g><g><path d="m312.779 434.617h-103.761c-5.523 0-10-4.478-10-10s4.477-10 10-10h103.761c5.523 0 10 4.478 10 10 0 5.523-4.477 10-10 10z"/></g></g><path d="m321.188 197.542h-12.193c14.837-13.733 24.14-33.366 24.14-55.13 0-41.427-33.703-75.13-75.13-75.13s-75.13 33.703-75.13 75.13c0 21.764 9.303 41.396 24.14 55.13h-6.405c-13.884 0-25.18 11.296-25.18 25.18v87.393c0 5.522 4.477 10 10 10h150.937c5.522 0 10-4.478 10-10v-87.393c0-13.884-11.296-25.18-25.179-25.18zm-118.313-55.13c0-30.398 24.731-55.13 55.13-55.13 30.398 0 55.13 24.731 55.13 55.13s-24.732 55.13-55.13 55.13c-30.399 0-55.13-24.731-55.13-55.13zm123.492 157.702h-130.936v-77.393c0-2.856 2.324-5.18 5.18-5.18h120.577c2.856 0 5.18 2.323 5.18 5.18v77.393z"/><path d="m485.798 78.074c0-14.871-12.098-26.969-26.969-26.969h-23.761v-41.105c0-5.523-4.478-10-10-10h-356.947c-23.114 0-41.919 18.805-41.919 41.919v168.875c0 5.523 4.477 10 10 10s10-4.477 10-10v-168.875c0-12.086 9.833-21.919 21.919-21.919h17.586v472h-17.586c-12.086 0-21.919-9.833-21.919-21.919v-168.875c0-5.522-4.477-10-10-10s-10 4.478-10 10v168.875c0 23.114 18.805 41.919 41.919 41.919h356.947c5.522 0 10-4.478 10-10v-116.297h23.761c14.871 0 26.969-12.098 26.969-26.969v-44.7c0-6.428-2.261-12.338-6.029-16.977 3.768-4.638 6.029-10.548 6.029-16.976v-44.7c0-6.428-2.261-12.337-6.029-16.976 3.768-4.639 6.029-10.549 6.029-16.977v-44.7c0-6.428-2.261-12.337-6.028-16.976 3.767-4.639 6.028-10.548 6.028-16.976zm-26.969-6.969c3.843 0 6.969 3.126 6.969 6.969v44.701c0 3.843-3.126 6.969-6.969 6.969h-23.761v-58.639zm6.969 208.976c0 3.843-3.126 6.969-6.969 6.969h-23.761v-58.638h23.761c3.843 0 6.969 3.126 6.969 6.969zm0-78.653c0 3.843-3.126 6.97-6.969 6.97h-23.761v-58.639h23.761c3.843 0 6.969 3.126 6.969 6.969zm-50.73 290.572h-309.361v-472h309.361zm50.73-133.266c0 3.843-3.126 6.969-6.969 6.969h-23.761v-58.639h23.761c3.843 0 6.969 3.127 6.969 6.97z"/></g></g></svg>