<?xml version="1.0" standalone="no"?>
<!DOCTYPE svg PUBLIC "-//W3C//DTD SVG 20010904//EN"
 "http://www.w3.org/TR/2001/REC-SVG-20010904/DTD/svg10.dtd">
<svg version="1.0" xmlns="http://www.w3.org/2000/svg"
 width="980.000000pt" height="940.000000pt" viewBox="0 0 980.000000 940.000000"
 preserveAspectRatio="xMidYMid meet">

<g transform="translate(0.000000,940.000000) scale(0.100000,-0.100000)"
fill="#ff0000" stroke="none">
<path d="M9469 9387 c-51 -15 -96 -44 -131 -86 -13 -15 -550 -1069 -1192
-2342 -643 -1273 -1172 -2318 -1176 -2322 -4 -4 -434 310 -956 697 -522 388
-973 718 -1003 733 -93 47 -227 26 -294 -45 -14 -15 -405 -534 -871 -1154
l-845 -1126 -93 -17 c-1220 -218 -2375 -421 -2380 -418 -5 2 -8 937 -8 2076
l0 2072 -24 50 c-61 133 -217 186 -350 121 -66 -32 -118 -96 -135 -163 -8 -29
-11 -1142 -11 -3641 0 -3202 2 -3603 15 -3643 21 -62 63 -109 126 -144 l54
-30 4705 0 4705 0 53 29 c189 105 188 364 -2 464 l-51 27 -4543 3 -4542 2 0
1120 c0 616 2 1120 4 1120 2 0 233 41 513 90 451 81 1359 242 1688 300 530 94
553 100 607 157 15 16 385 505 823 1088 438 583 797 1060 799 1060 2 0 445
-328 985 -728 539 -400 1002 -737 1027 -749 90 -39 212 -12 282 62 46 48 2529
4963 2545 5036 39 184 -141 352 -324 301z"/>
</g>
</svg>
